<svg xmlns="http://www.w3.org/2000/svg" width="100" height="100">
<path fill="#0178af" stroke="#000000" stroke-width="0" d="M0.75 7.7 C1.88 19.73 2.25 20.96 4.47 19.1 C6.08 17.87 7.2 18.49 12.04 23.2 L17.63 28.91 L25.07 25.69 L32.39 22.45 L24.7 14.77 C18.13 8.19 17.25 6.7 18.49 5.09 C20.36 2.85 18.99 2.49 7.08 1.37 L0 0.63 L0.75 7.7 Z M91.2 1.49 C80.28 2.73 79.17 3.23 80.77 5.09 C82.02 6.7 81.02 8.19 74.7 14.64 L67 22.34 L74.32 25.56 L81.64 28.78 L87.24 23.2 C92.06 18.49 93.19 17.87 94.8 19.1 C97.03 20.96 97.41 19.73 98.52 7.7 C99.38 0 99.88 0.38 91.2 1.49 Z M22.21 33.63 C17.63 35.99 10.93 40.82 7.33 44.16 L0.63 50.25 L7.33 56.32 C10.93 59.8 18 64.64 22.83 67.12 C30.9 71.46 31.39 71.58 29.41 68.73 C20.36 56.21 20.23 44.3 29.3 31.88 C30.4 30.39 31.15 29.16 30.9 29.16 C30.65 29.16 26.69 31.27 22.21 33.63 Z M39.96 31.14 C26.31 38.09 24.57 57.94 36.85 67.25 C42.44 71.58 52.37 72.58 58.82 69.47 C72.96 62.78 74.82 42.67 62.41 33.25 C56.84 29.03 46.16 28.03 39.96 31.14 Z M55.85 44.05 C57.21 45.41 58.32 48.14 58.32 50.25 C58.32 52.35 57.21 55.09 55.85 56.46 C50.5 61.78 40.96 57.82 40.96 50.25 C40.96 48.14 42.07 45.41 43.44 44.05 C44.8 42.67 47.53 41.57 49.64 41.57 C51.75 41.57 54.48 42.67 55.85 44.05 Z M47.16 48.51 C45.8 50 45.91 50.75 47.53 52.48 C49.51 54.35 49.76 54.35 51.75 52.48 C53.35 50.75 53.48 50 52.12 48.51 C51.25 47.39 50.14 46.53 49.64 46.53 C49.14 46.53 48.03 47.39 47.16 48.51 Z M72.21 35.35 C79.05 46.28 78.17 57.32 69.87 68.73 C67.88 71.58 68.38 71.46 76.44 67.12 C81.27 64.64 88.34 59.8 91.95 56.32 L98.64 50.25 L91.95 44.16 C88.34 40.69 81.52 35.99 76.81 33.49 L68.24 29.03 L72.21 35.35 Z M12.04 77.3 C7.2 82 6.08 82.63 4.47 81.38 C2.25 79.53 1.88 80.77 0.75 92.81 L0 99.88 L7.08 99.13 C18.99 98.01 20.36 97.65 18.49 95.41 C17.25 93.79 18.13 92.31 24.7 85.73 L32.39 78.04 L25.07 74.81 L17.63 71.58 L12.04 77.3 Z M74.2 74.94 L67 78.16 L74.7 85.86 C81.16 92.31 82.14 93.79 80.77 95.41 C79.17 97.4 79.53 97.51 93.44 99.25 L99.27 100 L98.64 92.81 C97.41 80.89 97.03 79.53 94.8 81.38 C93.19 82.63 91.95 82 87.1 77.3 L81.27 71.71 L74.2 74.94 Z "/>
</svg>
