<svg xmlns="http://www.w3.org/2000/svg" width="95" height="100">
<path fill="#0178af" d="M45.66 73.35 C45.66 73.35 45.66 73.35 45.66 73.35 L45.66 73.35 L45.66 73.35  Z M36.17 69.13 C36.46 69.13 36.67 69.2 36.82 69.35 C37.59 70.2 35.62 73.23 32.44 76.09 C29.81 78.45 27.19 79.98 25.89 79.98 C25.62 79.98 25.4 79.91 25.27 79.75 C24.49 78.89 26.46 75.88 29.64 73 C32.26 70.64 34.89 69.13 36.17 69.13  Z M87.56 16.52 C86.02 16.52 84.46 17.07 83.2 18.19 L83.2 18.19 C80.07 20.02 68.53 29.39 55.1 41.07 C47.62 47.59 40.91 53.62 36.05 58.16 L36.05 58.16 L33.96 60.05 C33.8 60.21 33.66 60.37 33.55 60.55 L33.55 60.55 C33.5 60.6 33.46 60.64 33.42 60.67 L33.42 60.67 L33.46 60.71 L33.46 60.71 C33.05 61.53 33.14 62.53 33.8 63.25 L34.94 64.55 L34.94 64.55 C34.89 64.56 34.82 64.57 34.76 64.59 L25.63 68.1 C25.39 68.2 25.21 68.34 25.07 68.53 L25.07 68.53 C24.8 68.8 24.56 69.13 24.39 69.5 L18.18 83.49 C17.99 83.89 17.9 84.31 17.89 84.7 L17.89 84.7 C17.79 85.03 17.78 85.38 17.89 85.7 C18.14 86.38 18.89 86.77 19.77 86.77 C20.11 86.77 20.46 86.71 20.82 86.59 L35.78 81.14 C35.94 81.09 36.1 81.02 36.25 80.92 L36.25 80.92 C36.66 80.88 37.03 80.63 37.21 80.24 L41.39 71.7 L41.39 71.7 L42.55 72.99 C43 73.49 43.62 73.74 44.23 73.74 C44.71 73.74 45.19 73.59 45.6 73.28 L45.6 73.28 L45.66 73.35 L45.66 73.35 C47.3 71.88 49.28 70.07 51.5 67.99 L51.5 67.99 L52.85 66.77 C52.98 66.66 53.09 66.52 53.19 66.39 L53.19 66.39 C57.39 62.39 62.37 57.55 67.63 52.28 C78.42 41.48 87.44 31.96 91.06 27.58 L91.06 27.58 L91.42 27.25 C94.02 24.83 94.24 20.87 91.95 18.39 C90.77 17.14 89.17 16.52 87.56 16.52  Z M21.8 0 L0 21.45 L0 98.17 C0 99.19 0.83 100 1.85 100 L74.8 100 C75.81 100 76.63 99.19 76.63 98.17 L76.63 48.91 L71.62 53.59 L71.62 53.59 L71.62 94.02 C71.62 94.7 71.06 95.24 70.38 95.24 L5.89 95.24 C5.22 95.24 4.66 94.7 4.66 94.02 L4.66 26.21 L26.81 26.21 C27.83 26.21 28.65 25.38 28.65 24.37 L28.65 5.16 L70.38 5.16 C71.06 5.16 71.62 5.7 71.62 6.37 L71.62 22.46 L76.63 17.78 L76.63 1.85 C76.63 0.83 75.81 0 74.8 0  Z "/>
</svg>
