<svg xmlns="http://www.w3.org/2000/svg" width="98" height="100">
<path fill="#0178af" d="M1.21 1.7 C0.31 2.59 0 14.32 0 48.55 L0 94.22 L2.9 97.11 L5.79 100 L48.66 100 L91.45 100 L94.24 97.61 L97.02 95.22 L97.32 73.73 L97.63 52.23 L88.17 52.23 L78.62 52.23 L78.62 27.56 C78.62 9.66 78.31 2.59 77.42 1.7 C75.74 0 2.9 0 1.21 1.7  Z M30.86 17.42 C32.75 19.1 35.03 20.39 35.94 20.39 C38.71 20.39 40.41 23.19 39.01 25.48 C37.53 27.87 37.53 32.63 38.91 34.02 C40.41 35.52 39.32 38.3 37.32 38.3 C35.44 38.3 30.96 41.1 28.66 43.78 C26.88 45.78 26.88 45.78 24.98 43.48 C23.89 42.28 21 40.3 18.52 39.21 C14.14 37.32 12.74 35.23 14.94 33.84 C16.22 33.03 16.22 27.77 14.83 25.27 C13.54 22.69 14.94 20.8 18.91 20 C20.5 19.7 22.89 18.31 24.08 16.92 C25.29 15.52 26.47 14.42 26.78 14.42 C27.07 14.52 28.96 15.82 30.86 17.42  Z M64.19 16.92 C64.19 18.7 63.39 18.91 55.53 19.2 C47.57 19.5 46.78 19.31 46.78 17.62 C46.78 14.63 47.78 14.32 56.23 14.63 C63.39 14.92 64.19 15.13 64.19 16.92  Z M64.49 30.05 C64.78 32.24 64.59 32.34 55.84 32.34 C47.67 32.34 46.78 32.13 46.78 30.55 C46.78 27.56 47.78 27.27 56.23 27.56 C63.6 27.87 64.19 28.06 64.49 30.05  Z M64.49 42.98 C64.78 45.17 64.59 45.28 55.84 45.28 C47.67 45.28 46.78 45.07 46.78 43.48 C46.78 40.5 47.78 40.19 56.23 40.5 C63.6 40.8 64.19 41 64.49 42.98  Z M64.49 58.41 L64.19 60.69 L39.32 60.69 L14.44 60.69 L14.14 58.41 L13.85 56.21 L39.32 56.21 L64.78 56.21 L64.49 58.41  Z M90.56 74.53 L90.56 89.95 L87.98 91.94 C84.59 94.62 83.99 94.52 81.1 91.54 C78.71 89.25 78.62 88.75 78.62 74.13 L78.62 59.21 L84.59 59.21 L90.56 59.21 L90.56 74.53  Z M38.32 71.64 C38.32 73.54 37.53 73.63 26.18 73.94 L13.94 74.22 L13.94 71.64 L13.94 69.05 L26.18 69.36 C37.53 69.65 38.32 69.75 38.32 71.64  Z M64.19 71.64 C64.19 73.44 63.39 73.63 55.53 73.94 L46.78 74.22 L46.78 71.64 L46.78 69.05 L55.53 69.36 C63.39 69.65 64.19 69.86 64.19 71.64  Z M38.32 84.57 C38.32 86.47 37.53 86.57 26.18 86.86 L13.94 87.16 L13.94 84.57 L13.94 81.99 L26.18 82.29 C37.53 82.58 38.32 82.69 38.32 84.57  Z M64.19 84.57 C64.19 86.36 63.39 86.57 55.53 86.86 C47.57 87.16 46.78 86.97 46.78 85.28 C46.78 82.29 47.78 81.99 56.23 82.29 C63.39 82.58 64.19 82.79 64.19 84.57  Z M27.88 22.88 C27.88 26.67 29.27 27.37 32.44 24.88 C34.34 23.49 34.23 23.38 31.86 21.39 C28.37 18.7 27.88 18.91 27.88 22.88  Z M21.4 21.99 C19.41 23.49 19.41 23.49 21.3 24.98 C24.38 27.17 25.88 26.67 25.88 23.38 C25.88 20.09 24.48 19.6 21.4 21.99  Z M17.93 29.85 L17.93 33.44 L20.9 31.84 C22.6 30.95 23.89 30.05 23.89 29.85 C23.89 29.66 22.6 28.75 20.9 27.87 L17.93 26.27 L17.93 29.85  Z M33.14 27.56 C30.15 28.95 30.25 30.74 33.35 32.13 C35.73 33.24 35.84 33.13 35.84 29.85 C35.84 27.96 35.73 26.37 35.64 26.46 C35.44 26.46 34.34 26.96 33.14 27.56  Z M21.9 34.32 C19.41 36.21 19.41 36.21 21.4 37.71 C24.58 40.19 25.88 39.6 25.88 35.82 C25.88 31.84 25.38 31.64 21.9 34.32  Z M28.46 33.03 C27.38 34.23 27.88 39.3 29.16 39.3 C31.15 39.21 34.14 36.51 33.35 35.42 C32.44 33.84 29.27 32.34 28.46 33.03  Z "/>
</svg>
