<svg xmlns="http://www.w3.org/2000/svg" width="81" height="100">
<path fill="#0178af" d="M66.67 0.66 C60.5 1.94 56.71 3.25 52.19 5.63 C45.34 9.28 42.66 11.34 41.16 14.19 C38.17 19.78 36.73 20.66 27.49 22.27 C20.5 23.46 19.32 23.85 17.8 25.31 C16.64 26.39 16.6 26.5 16.75 27.63 C16.85 28.27 17.3 29.7 17.77 30.77 C18.21 31.85 18.58 33.06 18.58 33.45 C18.58 34.45 17.55 35.35 15.2 36.42 C12.49 37.66 11.75 38.41 11.75 39.87 C11.75 41.44 11.37 42.05 10.36 42.05 C9.22 42.05 8.35 43.03 7.97 44.75 C7.49 46.94 7.06 47.57 4.58 49.53 C1.08 52.3 0 53.8 0 55.92 C0 56.96 0.21 57.55 0.86 58.53 C1.67 59.78 17.82 75.73 24.11 81.5 C26.38 83.61 27.41 84.75 27.74 85.57 C28.21 86.74 28.54 89.1 28.95 94.04 C29.11 96.31 29.3 97.19 29.71 97.74 C30.72 99.07 31.63 99.54 33.69 99.75 C36.26 100 71.67 100 74.24 99.75 C76.45 99.5 77.42 98.99 78.28 97.49 C78.75 96.7 78.84 96.06 78.84 93.14 C78.84 89.94 78.78 89.65 78.09 88.33 C77.06 86.36 75.62 84.9 74.84 85 C74.49 85.06 73.75 85.69 73.13 86.5 C71.84 88.11 70.73 88.78 69.21 88.78 C66.1 88.78 62.19 84.86 62.16 81.74 C62.16 80.24 62.91 79.27 64.69 78.38 C65.45 78 66.34 77.46 66.64 77.19 L67.23 76.66 L66.63 75.98 C66.27 75.61 63.39 74.05 60.21 72.48 C51.46 68.25 47.55 65.41 47.55 63.3 C47.55 61.96 48.39 60.8 50.07 59.87 C51.75 58.87 52.3 58.37 52.75 57.25 C53.37 55.55 51.98 53.23 49.96 52.71 C48.57 52.32 47.91 52.73 46.55 54.84 C44.91 57.37 44.32 57.89 43.12 57.89 C40.59 57.89 37.41 52.82 37 48.12 C36.89 46.59 36.94 46.14 37.39 45.44 C37.91 44.64 38.21 44.5 41.07 43.85 C44.28 43.09 46.46 42 46.46 41.12 C46.46 40.71 44.44 38.78 44 38.78 C43.59 38.78 42.91 37.26 42.91 36.37 C42.91 34.84 43.78 32.95 45.1 31.63 C46.67 30.06 48.1 29.56 49.92 29.92 C51.3 30.17 51.35 30.24 52.39 32.63 C52.98 33.96 53.94 34.2 54.87 33.25 C55.94 32.1 57.91 28.34 59.21 24.98 C60.8 20.81 61.78 18.85 63.28 16.74 C64.99 14.34 65.92 13.63 67.35 13.63 C68.87 13.63 69.88 14.42 70.94 16.5 C71.38 17.32 71.98 18.09 72.27 18.2 C73.88 18.69 75.42 18 76.27 16.34 C77.42 14.07 76.55 12.63 73.42 11.7 C71.3 11.06 70.88 10.52 71.34 8.85 C71.7 7.63 74.84 4.38 77.2 2.81 C80.2 0.84 79.35 0.21 73.64 0.09 C70.42 0 69.32 0.09 66.67 0.66  Z "/>
</svg>
