<svg xmlns="http://www.w3.org/2000/svg" width="100" height="98">
<path fill="#0178af" d="M38.91 11.27 C29.29 20.99 28.21 23.45 31.64 27.46 C32.62 28.74 35.28 29.92 38.23 30.42 C44.21 31.49 47.55 34.94 47.55 39.94 C47.55 44.96 44.01 48.19 38.41 48.19 C33.01 48.19 30.27 45.55 29.29 39.46 C28.39 34.05 25.95 31.49 21.71 31.49 C18.96 31.49 17.21 32.88 9.24 40.82 L0 50.07 L2.36 52.71 C12.39 63.53 19.55 69.8 22.02 69.8 C25.15 69.8 28.89 66.18 28.89 63.12 C28.89 59.69 31.45 54.39 33.6 53.21 C37.34 51.25 41.66 51.92 44.71 54.98 C47.94 58.21 48.35 61.55 46.09 65.87 C44.6 68.82 43.73 69.21 37.44 70.39 C33.41 71.08 29.88 74.63 29.88 78.05 C29.88 79.33 33.32 83.56 38.71 89.15 C43.62 94.17 47.85 98.29 48.25 98.29 C48.53 98.29 53.16 94.07 58.46 88.97 C63.76 83.86 68.77 79.63 69.56 79.63 C74.17 79.63 78 83.86 78 88.97 C78 90.24 79.19 92.6 80.56 94.26 C84.09 98.5 89.7 98.58 93.82 94.47 C100 88.28 94.91 78.64 85.48 78.64 C82.03 78.64 78.99 75.4 78.99 71.68 C78.99 69.12 80.56 66.96 88.02 59.3 L97.06 50.16 L88.02 41.03 C81.24 34.25 78.99 31.31 78.99 29.34 C78.99 25.41 81.84 22.75 87.14 21.77 C89.7 21.28 92.64 20.2 93.73 19.21 C98.05 15.28 96.87 7.13 91.67 4.49 C85.07 1.05 79.38 4.28 77.91 12.24 C76.82 18.13 74.67 20.7 70.84 20.7 C68.48 20.7 66.13 18.92 58.46 11.35 C53.16 6.25 48.73 2.02 48.44 2.02 C48.14 2.02 43.82 6.16 38.91 11.27  Z "/>
</svg>
