<svg xmlns="http://www.w3.org/2000/svg" width="92" height="100">
<path fill="#0178af" d="M79.14 22.27 L79.14 22.27 L79.14 22.27 C79.14 22.27 79.14 22.27 79.14 22.27  Z M13 22.44 C13 22.44 13 22.44 13 22.44 L13 22.44 L13 22.44  Z M39.94 12.73 C40.85 13.93 42.09 14.85 43.53 15.36 L43.53 15.36 L43.53 41.01 L43.53 41.01 C42.1 41.41 40.82 42.12 39.75 43.07 L15.79 29.24 L15.79 29.24 C15.82 28.99 15.83 28.74 15.83 28.49 C15.83 27.89 15.77 27.31 15.65 26.75 L15.65 26.75 L39.94 12.73  Z M39.75 43.07 L39.75 43.07 L39.75 43.07 C39.75 43.07 39.75 43.07 39.75 43.07  Z M52.5 12.73 L76.37 26.5 L76.37 26.5 C76.2 27.14 76.12 27.8 76.12 28.49 C76.12 28.86 76.14 29.21 76.2 29.55 L76.2 29.55 L52.51 43.21 C51.41 42.19 50.07 41.42 48.59 41.01 L48.59 41.01 L48.59 15.48 L48.59 15.48 C50.16 14.98 51.53 14 52.5 12.73  Z M52.51 43.21 C52.51 43.21 52.51 43.21 52.51 43.21 L52.51 43.21 L52.51 43.21  Z M78.45 34.1 C79.3 34.94 80.34 35.6 81.5 35.98 L81.49 35.98 L81.49 64.2 L81.49 64.2 C80.53 64.52 79.66 65.02 78.89 65.67 L78.89 65.67 L55.35 52.09 L55.35 52.09 C55.48 51.46 55.55 50.82 55.55 50.16 C55.55 49.25 55.41 48.37 55.17 47.53 L55.17 47.53 L78.45 34.1  Z M78.89 65.67 L78.89 65.67 L78.89 65.67 C78.89 65.67 78.89 65.67 78.89 65.67  Z M13.72 33.89 L37 47.32 L37 47.32 C36.71 48.23 36.57 49.17 36.57 50.16 C36.57 50.89 36.64 51.6 36.8 52.28 L36.8 52.28 L13.18 65.92 C12.39 65.24 11.47 64.7 10.45 64.34 L10.45 64.34 L10.45 35.98 L10.45 35.98 C11.72 35.57 12.82 34.84 13.72 33.89  Z M13.18 65.92 C13.18 65.92 13.18 65.92 13.18 65.92 L13.18 65.92 L13.18 65.92  Z M53.05 56.6 L76.3 70.02 L76.3 70.02 C76.19 70.56 76.12 71.12 76.12 71.69 C76.12 72.2 76.17 72.7 76.27 73.2 L76.27 73.2 L52.3 87.03 C51.34 85.88 50.05 85.02 48.59 84.55 L48.59 84.55 L48.59 59.32 L48.59 59.32 C50.32 58.85 51.85 57.89 53.05 56.6  Z M52.3 87.03 C52.3 87.03 52.3 87.03 52.3 87.03 L52.3 87.03 L52.3 87.03  Z M39.21 56.75 C40.37 57.96 41.85 58.87 43.53 59.32 L43.53 59.32 L43.53 84.66 L43.53 84.66 C42.14 85.17 40.92 86.03 40.03 87.17 L40.03 87.17 L15.73 73.13 L15.73 73.13 C15.79 72.71 15.83 72.28 15.83 71.84 C15.83 71.32 15.78 70.81 15.69 70.32 L15.69 70.32 L39.21 56.75  Z M46.21 0 C41.87 0 38.35 3.5 38.3 7.83 L38.3 7.83 L13 22.44 L13 22.44 C11.64 21.28 9.86 20.57 7.93 20.57 C3.55 20.57 0 24.13 0 28.49 C0 31.97 2.26 34.94 5.39 35.98 L5.39 35.98 L5.39 64.34 L5.39 64.34 C2.26 65.41 0 68.37 0 71.84 C0 76.21 3.55 79.75 7.93 79.75 C10.03 79.75 11.93 78.95 13.35 77.6 L13.35 77.6 L38.3 92.02 L38.3 92.02 C38.3 92.05 38.3 92.07 38.3 92.09 C38.3 96.46 41.85 100 46.21 100 C50.59 100 54.12 96.46 54.12 92.09 C54.12 92 54.12 91.92 54.12 91.82 L54.12 91.82 L78.77 77.59 L78.77 77.59 C80.17 78.84 82 79.59 84.02 79.59 C88.39 79.59 91.95 76.06 91.95 71.69 C91.95 68.2 89.7 65.24 86.56 64.2 L86.56 64.2 L86.56 35.98 L86.56 35.98 C89.7 34.94 91.95 31.97 91.95 28.49 C91.95 24.13 88.39 20.57 84.02 20.57 C82.19 20.57 80.49 21.21 79.14 22.27 L79.14 22.27 L54.12 7.83 L54.12 7.83 C54.07 3.5 50.55 0 46.21 0  Z "/>
</svg>
